<svg width="53" height="53" viewBox="0 0 53 53" fill="none" xmlns="http://www.w3.org/2000/svg">
<path d="M41.9583 53H11.0417C8.11431 52.9965 5.30786 51.8321 3.2379 49.7621C1.16795 47.6921 0.00350652 44.8857 0 41.9583L0 11.0417C0.00350652 8.11431 1.16795 5.30786 3.2379 3.2379C5.30786 1.16795 8.11431 0.00350652 11.0417 0L41.9583 0C44.8857 0.00350652 47.6921 1.16795 49.7621 3.2379C51.8321 5.30786 52.9965 8.11431 53 11.0417V41.9583C52.9965 44.8857 51.8321 47.6921 49.7621 49.7621C47.6921 51.8321 44.8857 52.9965 41.9583 53ZM11.0417 4.41667C9.28461 4.41667 7.59951 5.11466 6.35708 6.35708C5.11466 7.59951 4.41667 9.28461 4.41667 11.0417V41.9583C4.41667 43.7154 5.11466 45.4005 6.35708 46.6429C7.59951 47.8853 9.28461 48.5833 11.0417 48.5833H41.9583C43.7154 48.5833 45.4005 47.8853 46.6429 46.6429C47.8853 45.4005 48.5833 43.7154 48.5833 41.9583V11.0417C48.5833 9.28461 47.8853 7.59951 46.6429 6.35708C45.4005 5.11466 43.7154 4.41667 41.9583 4.41667H11.0417ZM20.6302 37.5527C19.7097 37.5496 18.8062 37.3036 18.0112 36.8394C17.2258 36.3899 16.5739 35.7398 16.1222 34.9556C15.6706 34.1714 15.4354 33.2813 15.4407 32.3764V20.6236C15.4399 19.7185 15.6772 18.8291 16.1287 18.0447C16.5803 17.2603 17.2302 16.6084 18.0132 16.1545C18.7962 15.7005 19.6849 15.4605 20.59 15.4585C21.4951 15.4565 22.3848 15.6925 23.1698 16.1429L34.8254 21.9619C35.635 22.3989 36.313 23.0446 36.7892 23.8319C37.2653 24.6192 37.5221 25.5195 37.5332 26.4395C37.5442 27.3594 37.309 28.2657 36.8519 29.0641C36.3948 29.8626 35.7325 30.5244 34.9336 30.9807L23.0616 36.9145C22.3212 37.3368 21.4827 37.557 20.6302 37.5527ZM20.575 19.886C20.4533 19.886 20.3338 19.918 20.2283 19.9788C20.1138 20.0425 20.0188 20.1362 19.9534 20.2498C19.888 20.3634 19.8548 20.4926 19.8573 20.6236V32.3764C19.8581 32.5055 19.8924 32.6321 19.9569 32.7439C20.0214 32.8558 20.1139 32.9489 20.2253 33.0141C20.3366 33.0794 20.4631 33.1146 20.5922 33.1162C20.7212 33.1178 20.8485 33.0859 20.9615 33.0234L32.8335 27.0874C32.9219 27.0183 32.9922 26.9287 33.0384 26.8264C33.0845 26.724 33.1052 26.612 33.0985 26.5C33.1013 26.3687 33.0679 26.2391 33.0021 26.1254C32.9363 26.0117 32.8406 25.9182 32.7253 25.8552L21.0785 20.0362C20.9267 19.9431 20.7531 19.8913 20.575 19.886Z" fill="white"/>
</svg>
